<?xml version="1.0" encoding="UTF-8" standalone="no"?>
<!-- Created with Inkscape (http://www.inkscape.org/) -->

<svg
   width="2078.3792"
   height="996.76202"
   viewBox="0 0 549.90448 263.72662"
   version="1.1"
   id="svg5"
   xmlns="http://www.w3.org/2000/svg"
   xmlns:svg="http://www.w3.org/2000/svg">
  <defs
     id="defs2" />
  <g
     id="layer1"
     transform="translate(-53.346104,-54.081401)">
    <path
       id="path1927"
       style="font-variation-settings:'wght' 700;display:inline;fill:#e6e6e6;fill-opacity:1;stroke:none;stroke-width:1.45268;stroke-linecap:round;stroke-linejoin:round;stroke-miterlimit:0;stroke-dasharray:none"
       d="m 507.53744,208.43355 a 108.81647,108.81647 0 0 1 6.55679,0.91102 108.81647,108.81647 0 0 1 9.25383,2.12026 108.81647,108.81647 0 0 1 9.03294,2.91958 108.81647,108.81647 0 0 1 8.74411,3.69478 108.81647,108.81647 0 0 1 8.3883,4.44347 108.81647,108.81647 0 0 1 6.23022,4.03172 108.81647,108.81647 0 0 1 1.73956,1.12588 108.81647,108.81647 0 0 1 7.49018,5.83318 108.81647,108.81647 0 0 1 6.95302,6.46312 108.81647,108.81647 0 0 1 6.36341,7.04407 108.81647,108.81647 0 0 1 5.72489,7.57275 108.81647,108.81647 0 0 1 5.04328,8.04196 108.81647,108.81647 0 0 1 4.3231,8.45192 108.81647,108.81647 0 0 1 3.57017,8.7957 108.81647,108.81647 0 0 1 2.78982,9.07412 108.81647,108.81647 0 0 1 1.98878,9.28216 108.81647,108.81647 0 0 1 1.17145,9.42059 108.81647,108.81647 0 0 1 0.34653,9.48666 108.81647,108.81647 0 0 1 -0.0128,0.31292 H 461.33318 435.25203 a 108.81647,108.81647 0 0 1 -6.55681,-0.91104 108.81647,108.81647 0 0 1 -9.25293,-2.12026 108.81647,108.81647 0 0 1 -9.03376,-2.91958 108.81647,108.81647 0 0 1 -8.74416,-3.69478 108.81647,108.81647 0 0 1 -8.38831,-4.44347 108.81647,108.81647 0 0 1 -6.30503,-4.08071 108.81647,108.81647 0 0 1 -1.66475,-1.07689 108.81647,108.81647 0 0 1 -7.49019,-5.83318 108.81647,108.81647 0 0 1 -6.953,-6.46312 108.81647,108.81647 0 0 1 -6.36344,-7.04407 108.81647,108.81647 0 0 1 -5.72489,-7.57273 108.81647,108.81647 0 0 1 -5.04326,-8.04198 108.81647,108.81647 0 0 1 -4.3231,-8.45191 108.81647,108.81647 0 0 1 -3.57018,-8.79564 108.81647,108.81647 0 0 1 -2.78981,-9.07425 108.81647,108.81647 0 0 1 -1.98878,-9.2821 108.81647,108.81647 0 0 1 -1.17145,-9.42052 108.81647,108.81647 0 0 1 -0.21067,-3.21786 108.81647,108.81647 0 0 1 -0.1153,-3.22295 108.81647,108.81647 0 0 1 -0.0205,-3.22557 108.81647,108.81647 0 0 1 0.004,-0.13305 h 0.34242 140.82923 z" />
    <path
       id="path1878"
       style="font-variation-settings:'wght' 700;fill:#0cf25d;fill-opacity:1;stroke:none;stroke-width:1.45268;stroke-linecap:round;stroke-linejoin:round;stroke-miterlimit:0;stroke-dasharray:none"
       d="m 349.49339,54.082435 a 108.81647,108.81647 0 0 1 6.55679,0.91102 108.81647,108.81647 0 0 1 9.25385,2.12027 108.81647,108.81647 0 0 1 9.03285,2.919574 108.81647,108.81647 0 0 1 8.74418,3.694861 108.81647,108.81647 0 0 1 8.3883,4.443385 108.81647,108.81647 0 0 1 6.23024,4.031726 108.81647,108.81647 0 0 1 1.73955,1.125875 108.81647,108.81647 0 0 1 7.49019,5.833179 108.81647,108.81647 0 0 1 6.04712,5.583876 108.81647,108.81647 0 0 1 0.71163,0.671118 108.81647,108.81647 0 0 1 6.46317,6.953016 108.81647,108.81647 0 0 1 5.83313,7.490184 108.81647,108.81647 0 0 1 1.12586,1.739561 108.81647,108.81647 0 0 1 4.03173,6.23022 108.81647,108.81647 0 0 1 4.44345,8.3883 108.81647,108.81647 0 0 1 3.6948,8.74411 108.81647,108.81647 0 0 1 2.91957,9.03293 108.81647,108.81647 0 0 1 2.12028,9.25383 108.81647,108.81647 0 0 1 0.91101,6.5568 v 26.82288 140.82921 0.34175 a 108.81647,108.81647 0 0 1 -0.13305,0.004 108.81647,108.81647 0 0 1 -3.22549,-0.0205 108.81647,108.81647 0 0 1 -3.22303,-0.1153 108.81647,108.81647 0 0 1 -3.21779,-0.21067 108.81647,108.81647 0 0 1 -9.42051,-1.17145 108.81647,108.81647 0 0 1 -9.28218,-1.98885 108.81647,108.81647 0 0 1 -9.07417,-2.78973 108.81647,108.81647 0 0 1 -8.7957,-3.57026 108.81647,108.81647 0 0 1 -8.45192,-4.32303 108.81647,108.81647 0 0 1 -8.04197,-5.04333 108.81647,108.81647 0 0 1 -7.57267,-5.72482 108.81647,108.81647 0 0 1 -7.04415,-6.36349 108.81647,108.81647 0 0 1 -6.46312,-6.95302 108.81647,108.81647 0 0 1 -5.83318,-7.49019 108.81647,108.81647 0 0 1 -1.07688,-1.66475 108.81647,108.81647 0 0 1 -4.08071,-6.30496 108.81647,108.81647 0 0 1 -4.4434,-8.38836 108.81647,108.81647 0 0 1 -3.69478,-8.74411 108.81647,108.81647 0 0 1 -2.91966,-9.03376 108.81647,108.81647 0 0 1 -2.12026,-9.25295 108.81647,108.81647 0 0 1 -0.91101,-6.55684 v -26.08132 -32.9053 h -32.91814 -26.08115 a 108.81647,108.81647 0 0 1 -6.55686,-0.91102 108.81647,108.81647 0 0 1 -9.25286,-2.12027 108.81647,108.81647 0 0 1 -9.03384,-2.91958 108.81647,108.81647 0 0 1 -8.7441,-3.69479 108.81647,108.81647 0 0 1 -8.38831,-4.44345 108.81647,108.81647 0 0 1 -6.30501,-4.08072 108.81647,108.81647 0 0 1 -1.66475,-1.07688 108.81647,108.81647 0 0 1 -7.49019,-5.83311 108.81647,108.81647 0 0 1 -6.95302,-6.46319 108.81647,108.81647 0 0 1 -6.36342,-7.04408 108.81647,108.81647 0 0 1 -5.72489,-7.57274 108.81647,108.81647 0 0 1 -5.04328,-8.0419 108.81647,108.81647 0 0 1 -4.32308,-8.45192 108.81647,108.81647 0 0 1 -3.57019,-8.795705 108.81647,108.81647 0 0 1 -2.7898,-9.074178 108.81647,108.81647 0 0 1 -1.9888,-9.282169 108.81647,108.81647 0 0 1 -1.17143,-9.420508 108.81647,108.81647 0 0 1 -0.21067,-3.217873 108.81647,108.81647 0 0 1 -0.1153,-3.22295 108.81647,108.81647 0 0 1 -0.0207,-3.225559 108.81647,108.81647 0 0 1 0.004,-0.133125 h 0.34173 140.82922 z" />
    <g
       aria-label="COSSA"
       id="text432"
       style="font-size:42.3333px;line-height:1.25;font-family:Nunito;-inkscape-font-specification:'Nunito, @wght=400';font-variation-settings:'wght' 400;letter-spacing:2.64583px;word-spacing:0px;fill:#e6e6e6;fill-opacity:1;stroke-width:0.264581"
       transform="matrix(1.830161,0,0,1.830161,1.1813273e-5,1e-5)">
      <path
         d="m 43.160627,158.65276 q -4.402663,0 -7.535327,-1.86267 -3.132665,-1.86266 -4.825997,-5.29166 -1.650998,-3.429 -1.650998,-8.17033 0,-3.55599 0.931332,-6.34999 0.973666,-2.83633 2.751665,-4.78366 1.820332,-1.98967 4.444997,-3.048 2.624664,-1.10067 5.884328,-1.10067 2.624665,0 4.99533,0.762 2.370665,0.71967 4.10633,2.159 0.550333,0.42333 0.719666,0.97367 0.211667,0.508 0.04233,1.01599 -0.127,0.46567 -0.508,0.80434 -0.338666,0.29633 -0.846666,0.29633 -0.508,0 -1.142999,-0.42333 -1.523999,-1.22767 -3.344331,-1.82033 -1.820332,-0.59267 -3.936997,-0.59267 -3.344331,0 -5.672662,1.43933 -2.328332,1.397 -3.513664,4.10633 -1.185333,2.70933 -1.185333,6.56166 0,3.85233 1.185333,6.604 1.185332,2.70933 3.513664,4.14866 2.328331,1.397 5.672662,1.397 2.074332,0 3.936997,-0.59267 1.862665,-0.63499 3.428998,-1.86266 0.634999,-0.42333 1.142999,-0.381 0.507999,0 0.846666,0.29633 0.338666,0.29634 0.465666,0.762 0.169333,0.46567 0,0.97367 -0.127,0.508 -0.634999,0.889 -1.777999,1.524 -4.190997,2.32833 -2.370665,0.762 -5.079997,0.762 z"
         style="fill:#e6e6e6;fill-opacity:1"
         id="path2427" />
      <path
         d="m 73.009351,158.65276 q -4.148664,0 -7.238995,-1.86267 -3.047998,-1.905 -4.74133,-5.33399 -1.650998,-3.429 -1.650998,-8.128 0,-3.55599 0.931332,-6.34999 0.973666,-2.83633 2.751665,-4.78366 1.777999,-1.98967 4.275663,-3.048 2.539998,-1.10067 5.672663,-1.10067 4.23333,0 7.281328,1.86267 3.090331,1.86266 4.741329,5.29166 1.693332,3.38666 1.693332,8.08566 0,3.556 -0.973665,6.39233 -0.973666,2.83633 -2.751665,4.826 -1.777999,1.98966 -4.317997,3.09033 -2.497665,1.05833 -5.672662,1.05833 z m 0,-3.09033 q 3.217331,0 5.418662,-1.43933 2.243665,-1.43934 3.428998,-4.191 1.185332,-2.75167 1.185332,-6.604 0,-5.79966 -2.624664,-8.97466 -2.582332,-3.21733 -7.408328,-3.21733 -3.132665,0 -5.37633,1.43933 -2.201331,1.43934 -3.386664,4.191 -1.185332,2.70933 -1.185332,6.56166 0,5.75733 2.624665,9.017 2.624664,3.21733 7.323661,3.21733 z"
         style="fill:#e6e6e6;fill-opacity:1"
         id="path2429" />
      <path
         d="m 105.24609,158.65276 q -1.98967,0 -3.89467,-0.33867 -1.904996,-0.33866 -3.555995,-0.97366 -1.608665,-0.635 -2.920997,-1.60867 -0.508,-0.381 -0.719666,-0.84667 -0.169334,-0.50799 -0.08467,-0.97366 0.127,-0.508 0.423333,-0.84667 0.338666,-0.33866 0.804333,-0.381 0.465666,-0.0423 1.015999,0.29634 1.904999,1.35466 4.064003,1.98966 2.159,0.59267 4.86833,0.59267 3.80999,0 5.63033,-1.397 1.86266,-1.43933 1.86266,-3.76767 0,-1.90499 -1.35466,-2.96333 -1.31234,-1.10066 -4.445,-1.73566 l -4.40266,-0.889 q -3.979338,-0.84667 -5.969003,-2.75167 -1.947332,-1.94733 -1.947332,-5.16466 0,-1.98966 0.804333,-3.59833 0.804332,-1.651 2.243665,-2.794 1.439332,-1.18533 3.428997,-1.82033 1.98967,-0.635 4.40267,-0.635 2.66699,0 4.95299,0.762 2.32833,0.71967 4.191,2.20133 0.46567,0.381 0.635,0.889 0.16933,0.46567 0.0423,0.93133 -0.127,0.42334 -0.46566,0.71967 -0.29634,0.29633 -0.80434,0.33867 -0.46566,0.0423 -1.05833,-0.33867 -1.69333,-1.27 -3.51366,-1.82033 -1.82034,-0.59267 -4.02167,-0.59267 -2.24366,0 -3.89466,0.67734 -1.608669,0.67733 -2.540002,1.98966 -0.888999,1.27 -0.888999,2.96333 0,2.032 1.227666,3.21733 1.270005,1.18534 4.106335,1.73567 l 4.40266,0.93133 q 4.27566,0.889 6.30766,2.70933 2.07433,1.778 2.07433,4.86833 0,1.86267 -0.76199,3.429 -0.762,1.56633 -2.20134,2.70933 -1.43933,1.10067 -3.47133,1.69333 -2.032,0.59267 -4.57199,0.59267 z"
         style="fill:#e6e6e6;fill-opacity:1"
         id="path2431" />
      <path
         d="m 133.9269,158.65276 q -1.98967,0 -3.89467,-0.33867 -1.905,-0.33866 -3.556,-0.97366 -1.60866,-0.635 -2.92099,-1.60867 -0.508,-0.381 -0.71967,-0.84667 -0.16933,-0.50799 -0.0847,-0.97366 0.127,-0.508 0.42334,-0.84667 0.33866,-0.33866 0.80433,-0.381 0.46567,-0.0423 1.016,0.29634 1.905,1.35466 4.064,1.98966 2.15899,0.59267 4.86833,0.59267 3.80999,0 5.63032,-1.397 1.86267,-1.43933 1.86267,-3.76767 0,-1.90499 -1.35467,-2.96333 -1.31233,-1.10066 -4.44499,-1.73566 l -4.40267,-0.889 q -3.97933,-0.84667 -5.96899,-2.75167 -1.94733,-1.94733 -1.94733,-5.16466 0,-1.98966 0.80433,-3.59833 0.80433,-1.651 2.24366,-2.794 1.43934,-1.18533 3.429,-1.82033 1.98967,-0.635 4.40267,-0.635 2.66699,0 4.95299,0.762 2.32833,0.71967 4.191,2.20133 0.46566,0.381 0.635,0.889 0.16933,0.46567 0.0423,0.93133 -0.127,0.42334 -0.46566,0.71967 -0.29634,0.29633 -0.80434,0.33867 -0.46566,0.0423 -1.05833,-0.33867 -1.69333,-1.27 -3.51366,-1.82033 -1.82034,-0.59267 -4.02167,-0.59267 -2.24366,0 -3.89466,0.67734 -1.60867,0.67733 -2.54,1.98966 -0.889,1.27 -0.889,2.96333 0,2.032 1.22767,3.21733 1.27,1.18534 4.10633,1.73567 l 4.40266,0.93133 q 4.27566,0.889 6.30766,2.70933 2.07433,1.778 2.07433,4.86833 0,1.86267 -0.762,3.429 -0.76199,1.56633 -2.20133,2.70933 -1.43933,1.10067 -3.47133,1.69333 -2.032,0.59267 -4.57199,0.59267 z"
         style="fill:#e6e6e6;fill-opacity:1"
         id="path2433" />
      <path
         d="m 152.24368,158.56809 q -0.67733,0 -1.10067,-0.29633 -0.381,-0.33867 -0.46566,-0.84667 -0.0423,-0.55033 0.254,-1.22766 L 162.573,129.69678 q 0.381,-0.84667 0.889,-1.18533 0.55034,-0.381 1.18534,-0.381 0.635,0 1.14299,0.381 0.55034,0.33866 0.889,1.18533 l 11.684,26.50065 q 0.33866,0.67733 0.254,1.22766 -0.0423,0.55034 -0.42334,0.84667 -0.381,0.29633 -1.05833,0.29633 -0.762,0 -1.22767,-0.381 -0.46566,-0.42333 -0.762,-1.18533 l -3.13266,-7.23899 1.69333,0.88899 h -18.20332 l 1.73567,-0.88899 -3.09033,7.23899 q -0.381,0.80433 -0.80434,1.18533 -0.42333,0.381 -1.10066,0.381 z m 12.36132,-26.07731 -6.81566,16.04432 -1.016,-0.80433 h 15.66332 l -0.93133,0.80433 -6.81566,-16.04432 z"
         style="fill:#e6e6e6;fill-opacity:1"
         id="path2435" />
    </g>
    <g
       aria-label="AZAF"
       id="text301"
       style="font-size:4.2333px;line-height:1.25;fill:#0cf25d;fill-opacity:1;stroke-width:0.264581"
       transform="matrix(1.830161,0,0,1.830161,1.1813273e-5,1e-5)">
      <path
         d="M 29.185319,123.34676 41.448664,95.565725 h 7.739003 L 61.490699,123.34676 H 53.315136 L 43.710834,99.415383 h 3.095602 l -9.604303,23.931377 z m 6.707137,-5.39746 2.024047,-5.79433 h 13.573022 l 2.024047,5.79433 z"
         style="letter-spacing:1.47637px;fill:#0cf25d;fill-opacity:1"
         id="path2106" />
      <path
         d="m 63.800475,123.34676 v -4.92121 l 16.351126,-19.407039 0.952492,2.778099 H 64.157659 V 95.565725 H 88.08904 v 4.921215 l -16.351126,19.40704 -0.952492,-2.77811 h 17.898926 v 6.23089 z"
         style="letter-spacing:1.47637px;fill:#0cf25d;fill-opacity:1"
         id="path2108" />
      <path
         d="M 90.279737,123.34676 102.54308,95.565725 h 7.739 l 12.30304,27.781035 h -8.17557 l -9.6043,-23.931377 h 3.0956 l -9.604299,23.931377 z m 6.707136,-5.39746 2.024048,-5.79433 h 13.573019 l 2.02405,5.79433 z"
         style="letter-spacing:0px;fill:#0cf25d;fill-opacity:1"
         id="path2110" />
      <path
         d="m 132.11002,107.74969 h 12.81896 v 6.07215 h -12.81896 z m 0.55562,15.59707 h -7.85807 V 95.565725 h 21.78827 v 6.072145 h -13.9302 z"
         style="font-size:39.6872px;font-family:Montserrat;-inkscape-font-specification:'Montserrat, @wght=800';font-variation-settings:'wght' 800;fill:#0cf25d;fill-opacity:1"
         id="path2112" />
    </g>
    <g
       aria-label="O"
       id="text1275"
       style="font-size:4.23333px;line-height:1.25;fill:#e6e6e6;fill-opacity:1;stroke-width:0.264583"
       transform="matrix(1.830161,0,0,1.830161,1.1813273e-5,1e-5)">
      <path
         d="m 163.31485,124.45823 q -3.33375,0 -6.15156,-1.07156 -2.81781,-1.07157 -4.92125,-3.01625 -2.06375,-1.98438 -3.21469,-4.60375 -1.15094,-2.61938 -1.15094,-5.75469 0,-3.13531 1.15094,-5.75469 1.15094,-2.61937 3.21469,-4.564062 2.10344,-1.984375 4.92125,-3.055937 2.81781,-1.071563 6.15156,-1.071563 3.37344,0 6.15156,1.071563 2.81782,1.071562 4.88157,3.055937 2.06375,1.944692 3.21468,4.564062 1.19063,2.61938 1.19063,5.75469 0,3.13531 -1.19063,5.79437 -1.15093,2.61938 -3.21468,4.56407 -2.06375,1.94468 -4.88157,3.01625 -2.77812,1.07156 -6.15156,1.07156 z m 0,-6.50875 q 1.5875,0 2.93688,-0.55563 1.38906,-0.55562 2.38125,-1.5875 1.03187,-1.07156 1.5875,-2.54 0.59531,-1.46843 0.59531,-3.25437 0,-1.82563 -0.59531,-3.25438 -0.55563,-1.46843 -1.5875,-2.50031 -0.99219,-1.07156 -2.38125,-1.62719 -1.34938,-0.55562 -2.93688,-0.55562 -1.5875,0 -2.97656,0.55562 -1.34938,0.55563 -2.38125,1.62719 -0.99219,1.03188 -1.5875,2.50031 -0.55563,1.42875 -0.55563,3.25438 0,1.78594 0.55563,3.25437 0.59531,1.46844 1.5875,2.54 1.03187,1.03188 2.38125,1.5875 1.38906,0.55563 2.97656,0.55563 z"
         style="font-size:39.6875px;font-family:Montserrat;-inkscape-font-specification:'Montserrat, @wght=800';font-variation-settings:'wght' 800;fill:#e6e6e6;fill-opacity:1"
         id="path2424" />
    </g>
  </g>
</svg>
