<?xml version="1.0" encoding="UTF-8" standalone="no"?>
<!-- Created with Inkscape (http://www.inkscape.org/) -->

<svg
   width="100"
   height="99.995209"
   viewBox="0 0 26.458333 26.457066"
   version="1.1"
   id="svg1"
   xml:space="preserve"
   xmlns="http://www.w3.org/2000/svg"
   xmlns:svg="http://www.w3.org/2000/svg"><defs
     id="defs1" /><g
     id="layer1"
     transform="translate(-26.183483,-13.229168)"><g
       id="g2490"
       transform="matrix(0.18360183,0,0,0.18360183,7.9762152,7.8037537)"><path
         id="path1878"
         style="font-variation-settings:'wght' 700;fill:#0cf25d;fill-opacity:1;stroke:none;stroke-width:0.793747;stroke-linecap:round;stroke-linejoin:round;stroke-miterlimit:0;stroke-dasharray:none"
         d="m 190.96319,29.550638 a 59.45732,59.45732 0 0 1 3.58263,0.497781 59.45732,59.45732 0 0 1 5.0563,1.158516 59.45732,59.45732 0 0 1 4.93555,1.595255 59.45732,59.45732 0 0 1 4.77782,2.018872 59.45732,59.45732 0 0 1 4.58337,2.427866 59.45732,59.45732 0 0 1 3.4042,2.202935 59.45732,59.45732 0 0 1 0.95049,0.615178 59.45732,59.45732 0 0 1 4.09264,3.187249 59.45732,59.45732 0 0 1 3.30415,3.05103 59.45732,59.45732 0 0 1 0.38883,0.366699 59.45732,59.45732 0 0 1 3.53148,3.799128 59.45732,59.45732 0 0 1 3.18722,4.092637 59.45732,59.45732 0 0 1 0.61517,0.950494 59.45732,59.45732 0 0 1 2.20294,3.404194 59.45732,59.45732 0 0 1 2.4279,4.583369 59.45732,59.45732 0 0 1 2.01884,4.77778 59.45732,59.45732 0 0 1 1.59525,4.935596 59.45732,59.45732 0 0 1 1.15852,5.056292 59.45732,59.45732 0 0 1 0.49778,3.582632 v 14.656025 76.949084 0.18673 a 59.45732,59.45732 0 0 1 -0.0727,0.002 59.45732,59.45732 0 0 1 -1.76241,-0.0112 59.45732,59.45732 0 0 1 -1.76106,-0.063 59.45732,59.45732 0 0 1 -1.7582,-0.11511 59.45732,59.45732 0 0 1 -5.14737,-0.64008 59.45732,59.45732 0 0 1 -5.07178,-1.08671 59.45732,59.45732 0 0 1 -4.95813,-1.52431 59.45732,59.45732 0 0 1 -4.80597,-1.95079 59.45732,59.45732 0 0 1 -4.61813,-2.3621 59.45732,59.45732 0 0 1 -4.39413,-2.75568 59.45732,59.45732 0 0 1 -4.13771,-3.12804 59.45732,59.45732 0 0 1 -3.84892,-3.47701 59.45732,59.45732 0 0 1 -3.53145,-3.79913 59.45732,59.45732 0 0 1 -3.18725,-4.09264 59.45732,59.45732 0 0 1 -0.58841,-0.90962 59.45732,59.45732 0 0 1 -2.2297,-3.44503 59.45732,59.45732 0 0 1 -2.42787,-4.5834 59.45732,59.45732 0 0 1 -2.01883,-4.77778 59.45732,59.45732 0 0 1 -1.5953,-4.93605 59.45732,59.45732 0 0 1 -1.15851,-5.05581 59.45732,59.45732 0 0 1 -0.49778,-3.58266 V 107.101 89.121541 h -17.98647 -14.25074 a 59.45732,59.45732 0 0 1 -3.58267,-0.497781 59.45732,59.45732 0 0 1 -5.05576,-1.158516 59.45732,59.45732 0 0 1 -4.93609,-1.595255 59.45732,59.45732 0 0 1 -4.77778,-2.018835 59.45732,59.45732 0 0 1 -4.58337,-2.427904 59.45732,59.45732 0 0 1 -3.44506,-2.229705 59.45732,59.45732 0 0 1 -0.90962,-0.588407 59.45732,59.45732 0 0 1 -4.09264,-3.187211 59.45732,59.45732 0 0 1 -3.79913,-3.531489 59.45732,59.45732 0 0 1 -3.47697,-3.848883 59.45732,59.45732 0 0 1 -3.12808,-4.137744 59.45732,59.45732 0 0 1 -2.75565,-4.394095 59.45732,59.45732 0 0 1 -2.36213,-4.618127 59.45732,59.45732 0 0 1 -1.95075,-4.805976 59.45732,59.45732 0 0 1 -1.52435,-4.958131 59.45732,59.45732 0 0 1 -1.086677,-5.071777 59.45732,59.45732 0 0 1 -0.64007,-5.147366 59.45732,59.45732 0 0 1 -0.11511,-1.758246 59.45732,59.45732 0 0 1 -0.063,-1.76102 59.45732,59.45732 0 0 1 -0.0113,-1.762445 59.45732,59.45732 0 0 1 0.002,-0.07274 h 0.18672 76.949087 z" /><g
         aria-label="O"
         id="text1275"
         style="font-size:4.23333px;line-height:1.25;stroke-width:0.264583"><path
           d="m 163.31485,124.45823 q -3.33375,0 -6.15156,-1.07156 -2.81781,-1.07157 -4.92125,-3.01625 -2.06375,-1.98438 -3.21469,-4.60375 -1.15094,-2.61938 -1.15094,-5.75469 0,-3.13531 1.15094,-5.75469 1.15094,-2.61937 3.21469,-4.564062 2.10344,-1.984375 4.92125,-3.055937 2.81781,-1.071563 6.15156,-1.071563 3.37344,0 6.15156,1.071563 2.81782,1.071562 4.88157,3.055937 2.06375,1.944692 3.21468,4.564062 1.19063,2.61938 1.19063,5.75469 0,3.13531 -1.19063,5.79437 -1.15093,2.61938 -3.21468,4.56407 -2.06375,1.94468 -4.88157,3.01625 -2.77812,1.07156 -6.15156,1.07156 z m 0,-6.50875 q 1.5875,0 2.93688,-0.55563 1.38906,-0.55562 2.38125,-1.5875 1.03187,-1.07156 1.5875,-2.54 0.59531,-1.46843 0.59531,-3.25437 0,-1.82563 -0.59531,-3.25438 -0.55563,-1.46843 -1.5875,-2.50031 -0.99219,-1.07156 -2.38125,-1.62719 -1.34938,-0.55562 -2.93688,-0.55562 -1.5875,0 -2.97656,0.55562 -1.34938,0.55563 -2.38125,1.62719 -0.99219,1.03188 -1.5875,2.50031 -0.55563,1.42875 -0.55563,3.25438 0,1.78594 0.55563,3.25437 0.59531,1.46844 1.5875,2.54 1.03187,1.03188 2.38125,1.5875 1.38906,0.55563 2.97656,0.55563 z"
           style="font-size:39.6875px;font-family:Montserrat;-inkscape-font-specification:'Montserrat, @wght=800';font-variation-settings:'wght' 800;fill:#e6e6e6;fill-opacity:1"
           id="path2424" /></g></g></g></svg>
